<svg xmlns="http://www.w3.org/2000/svg" xmlns:xlink="http://www.w3.org/1999/xlink" width="1024" zoomAndPan="magnify" viewBox="0 0 768 767.999994" height="1024" preserveAspectRatio="xMidYMid meet" version="1.0"><defs><g/><clipPath id="ec856c5eee"><path d="M 125 76.800781 L 652.949219 76.800781 L 652.949219 429 L 125 429 Z M 125 76.800781 " clip-rule="nonzero"/></clipPath><clipPath id="ec353d4dc0"><path d="M 115.199219 353 L 643 353 L 643 567 L 115.199219 567 Z M 115.199219 353 " clip-rule="nonzero"/></clipPath><clipPath id="c601ecd93d"><path d="M 392 572 L 480 572 L 480 691.050781 L 392 691.050781 Z M 392 572 " clip-rule="nonzero"/></clipPath><clipPath id="2398b093d6"><path d="M 288 572 L 376 572 L 376 691.050781 L 288 691.050781 Z M 288 572 " clip-rule="nonzero"/></clipPath></defs><g fill="#ffffff" fill-opacity="1"><g transform="translate(376.716635, 248.320009)"><g><path d="M 5.375 0.265625 C 4.488281 0.265625 3.71875 0.101562 3.0625 -0.21875 C 2.414062 -0.550781 1.914062 -1.03125 1.5625 -1.65625 C 1.21875 -2.28125 1.046875 -3.035156 1.046875 -3.921875 C 1.046875 -4.742188 1.21875 -5.429688 1.5625 -5.984375 C 1.914062 -6.535156 2.457031 -6.988281 3.1875 -7.34375 C 3.925781 -7.695312 4.890625 -7.96875 6.078125 -8.15625 C 6.898438 -8.289062 7.523438 -8.4375 7.953125 -8.59375 C 8.378906 -8.75 8.664062 -8.925781 8.8125 -9.125 C 8.96875 -9.332031 9.046875 -9.585938 9.046875 -9.890625 C 9.046875 -10.335938 8.890625 -10.675781 8.578125 -10.90625 C 8.273438 -11.144531 7.765625 -11.265625 7.046875 -11.265625 C 6.285156 -11.265625 5.554688 -11.09375 4.859375 -10.75 C 4.171875 -10.40625 3.570312 -9.953125 3.0625 -9.390625 L 2.8125 -9.390625 L 1.359375 -11.578125 C 2.054688 -12.359375 2.910156 -12.960938 3.921875 -13.390625 C 4.929688 -13.828125 6.03125 -14.046875 7.21875 -14.046875 C 9.039062 -14.046875 10.359375 -13.65625 11.171875 -12.875 C 11.992188 -12.101562 12.40625 -11.003906 12.40625 -9.578125 L 12.40625 -3.59375 C 12.40625 -2.976562 12.675781 -2.671875 13.21875 -2.671875 C 13.425781 -2.671875 13.628906 -2.707031 13.828125 -2.78125 L 14.015625 -2.734375 L 14.265625 -0.328125 C 14.066406 -0.203125 13.796875 -0.0976562 13.453125 -0.015625 C 13.117188 0.0546875 12.742188 0.09375 12.328125 0.09375 C 11.503906 0.09375 10.859375 -0.0625 10.390625 -0.375 C 9.929688 -0.6875 9.601562 -1.179688 9.40625 -1.859375 L 9.140625 -1.890625 C 8.472656 -0.453125 7.21875 0.265625 5.375 0.265625 Z M 6.46875 -2.328125 C 7.269531 -2.328125 7.910156 -2.59375 8.390625 -3.125 C 8.867188 -3.664062 9.109375 -4.414062 9.109375 -5.375 L 9.109375 -6.765625 L 8.875 -6.828125 C 8.664062 -6.660156 8.390625 -6.519531 8.046875 -6.40625 C 7.710938 -6.289062 7.226562 -6.179688 6.59375 -6.078125 C 5.84375 -5.953125 5.300781 -5.734375 4.96875 -5.421875 C 4.644531 -5.117188 4.484375 -4.691406 4.484375 -4.140625 C 4.484375 -3.546875 4.65625 -3.09375 5 -2.78125 C 5.351562 -2.476562 5.84375 -2.328125 6.46875 -2.328125 Z M 6.46875 -2.328125 "/></g></g></g><path fill="#737373" d="M 513.773438 391.484375 C 513.773438 410.890625 498.035156 426.664062 478.589844 426.664062 C 459.144531 426.664062 443.40625 410.929688 443.40625 391.484375 C 443.40625 372.039062 459.144531 356.300781 478.589844 356.300781 C 498.035156 356.300781 513.773438 372.039062 513.773438 391.484375 Z M 513.773438 391.484375 " fill-opacity="1" fill-rule="nonzero"/><path fill="#737373" d="M 289.445312 356.300781 C 308.851562 356.300781 324.628906 372.039062 324.628906 391.484375 C 324.628906 410.890625 308.890625 426.664062 289.445312 426.664062 C 270 426.664062 254.261719 410.890625 254.261719 391.484375 C 254.261719 372.039062 270 356.300781 289.445312 356.300781 Z M 289.445312 356.300781 " fill-opacity="1" fill-rule="nonzero"/><g clip-path="url(#ec856c5eee)"><path fill="#737373" d="M 596.898438 428.957031 L 652.617188 428.957031 C 652.652344 427.71875 652.796875 426.519531 652.796875 425.320312 L 652.796875 357.609375 C 652.796875 279.644531 589.375 216.222656 511.410156 216.222656 L 396.59375 216.222656 L 396.59375 155.632812 C 412.730469 150.289062 424.46875 135.277344 424.46875 117.359375 C 424.46875 95.007812 406.332031 76.871094 383.980469 76.871094 C 361.628906 76.871094 343.492188 95.007812 343.492188 117.359375 C 343.492188 135.277344 355.230469 150.324219 371.367188 155.632812 L 371.367188 216.257812 L 256.585938 216.257812 C 197.667969 216.257812 147.113281 252.53125 125.886719 303.851562 L 190.035156 303.851562 C 205.738281 284.441406 229.726562 271.976562 256.585938 271.976562 L 511.445312 271.976562 C 558.660156 271.976562 597.078125 310.394531 597.078125 357.609375 L 597.078125 425.320312 C 597.078125 426.558594 596.933594 427.757812 596.898438 428.957031 Z M 380.527344 99.914062 C 380.527344 106.238281 375.402344 111.363281 369.078125 111.363281 C 362.753906 111.363281 357.628906 106.238281 357.628906 99.914062 C 357.628906 93.589844 362.753906 88.464844 369.078125 88.464844 C 375.402344 88.464844 380.527344 93.625 380.527344 99.914062 Z M 380.527344 99.914062 " fill-opacity="1" fill-rule="nonzero"/></g><g clip-path="url(#ec353d4dc0)"><path fill="#737373" d="M 115.417969 353.972656 L 171.171875 353.972656 C 171.136719 355.210938 170.992188 356.410156 170.992188 357.609375 L 170.992188 425.320312 C 170.992188 472.535156 209.410156 510.953125 256.625 510.953125 L 511.484375 510.953125 C 538.34375 510.953125 562.332031 498.484375 578.035156 479.078125 L 642.183594 479.078125 C 620.996094 530.433594 570.402344 566.671875 511.484375 566.671875 L 256.585938 566.671875 C 178.625 566.671875 115.199219 503.246094 115.199219 425.285156 L 115.199219 357.609375 C 115.199219 356.371094 115.382812 355.171875 115.417969 353.972656 Z M 115.417969 353.972656 " fill-opacity="1" fill-rule="nonzero"/></g><g clip-path="url(#c601ecd93d)"><path fill="#737373" d="M 479.425781 586.769531 L 479.425781 676.691406 L 462.925781 691.121094 L 392.195312 646.304688 L 392.195312 617.121094 L 462.925781 572.304688 Z M 479.425781 586.769531 " fill-opacity="1" fill-rule="nonzero"/></g><g clip-path="url(#2398b093d6)"><path fill="#737373" d="M 375.839844 617.121094 L 375.839844 646.304688 L 305.109375 691.121094 L 288.609375 676.691406 L 288.609375 586.769531 L 305.109375 572.304688 Z M 375.839844 617.121094 " fill-opacity="1" fill-rule="nonzero"/></g><path fill="#737373" d="M 378.203125 617.449219 L 389.832031 617.449219 L 389.832031 645.980469 L 378.203125 645.980469 Z M 378.203125 617.449219 " fill-opacity="1" fill-rule="nonzero"/></svg>